<mxfile host="app.diagrams.net" modified="2023-08-30T06:24:51.683Z" agent="Mozilla/5.0 (Windows NT 10.0; Win64; x64) AppleWebKit/537.36 (KHTML, like Gecko) Chrome/116.0.0.0 Safari/537.36" version="21.5.2" etag="lk1eoedccn30xPEjLnsm" type="github">
  <diagram name="第 1 页" id="CEyxU25TGeInB2QeENSI">
    <mxGraphModel>
      <root>
        <mxCell id="0" />
        <mxCell id="1" parent="0" />
      </root>
    </mxGraphModel>
  </diagram>
</mxfile>
